<mxfile host="app.diagrams.net" modified="2023-11-16T15:03:27.374Z" agent="Mozilla/5.0 (Macintosh; Intel Mac OS X 10_15_7) AppleWebKit/605.1.15 (KHTML, like Gecko) Version/15.6 Safari/605.1.15" version="22.1.2" etag="7TfU31TE8hQgxGr1dt4g" type="github">
  <diagram name="Page-1" id="ATxFjS2a3gxSJnANFra_">
    <mxGraphModel>
      <root>
        <mxCell id="0" />
        <mxCell id="1" parent="0" />
      </root>
    </mxGraphModel>
  </diagram>
</mxfile>
